<?xml version="1.0" encoding="iso-8859-1"?>
<svg xmlns="http://www.w3.org/2000/svg" viewBox="0 0 480 480">
  <defs>
    <style>
      .geocookie-cls-1 { fill: #34495e; }
      .geocookie-cls-2 { fill: #42b983; }
    </style>
  </defs>
  <title>geocookie-icon</title>
  <circle class="geocookie-cls-1" cx="240" cy="240" r="240"/>
  <path class="geocookie-cls-2" d="M240,196.36A43.64,43.64,0,1,0,283.64,240,43.63,43.63,0,0,0,240,196.36Zm97.53,32.73a98.13,98.13,0,0,0-86.62-86.62V120H229.09v22.47a98.13,98.13,0,0,0-86.62,86.62H120v21.82h22.47a98.13,98.13,0,0,0,86.62,86.62V360h21.82V337.53a98.13,98.13,0,0,0,86.62-86.62H360V229.09ZM240,316.36A76.36,76.36,0,1,1,316.36,240,76.3,76.3,0,0,1,240,316.36Z"/>
</svg>
