<?xml version="1.0" encoding="iso-8859-1"?>
<!DOCTYPE svg PUBLIC "-//W3C//DTD SVG 1.1//EN" "http://www.w3.org/Graphics/SVG/1.1/DTD/svg11.dtd">
<svg id="Layer_4" data-name="Layer 4" xmlns="http://www.w3.org/2000/svg" xmlns:xlink="http://www.w3.org/1999/xlink" viewBox="0 0 480 480">
  <defs>
    <style>
      .cls-1 {
        fill: url(#linear-gradient);
      }

      .cls-2 {
        fill: #fff;
      }
    </style>
    <linearGradient id="linear-gradient" x1="70.29" y1="70.29" x2="409.71" y2="409.71" gradientUnits="userSpaceOnUse">
      <stop offset="0" stop-color="#79f1a4"/>
      <stop offset="1" stop-color="#0e5cad"/>
    </linearGradient>
  </defs>
  <title>geocookie</title>
  <circle class="cls-1" cx="240" cy="240" r="240"/>
  <path class="cls-2" d="M340,240A100,100,0,1,0,240,340,100,100,0,0,0,340,240Zm-16.78,25.81H283.12a165.14,165.14,0,0,0,0-51.61h40.07A87.68,87.68,0,0,1,323.22,265.81ZM240,326.45c-12.39-11.18-21.83-28-27.2-47.74h54.4C261.83,298.42,252.39,315.27,240,326.45Zm-30.06-60.64a152.5,152.5,0,0,1,0-51.61h60.11a152.52,152.52,0,0,1,0,51.61ZM240,153.56c13.53,12.22,22.4,30.22,27.18,47.74H212.82C217.62,183.69,226.52,165.73,240,153.56Zm78,47.74h-37.5c-4.41-17.8-11.84-33.75-21.73-46.35A87.2,87.2,0,0,1,318,201.29Zm-96.85-46.35c-9.89,12.6-17.32,28.55-21.73,46.35H162A87.2,87.2,0,0,1,221.19,154.94Zm-64.41,59.26h40.07a165.14,165.14,0,0,0,0,51.61H156.78A87.68,87.68,0,0,1,156.78,214.19ZM162,278.71h37.55c4.44,17.81,11.89,33.8,21.71,46.36A87.2,87.2,0,0,1,162,278.71Zm96.83,46.36c9.82-12.56,17.27-28.54,21.7-46.36H318A87.2,87.2,0,0,1,258.79,325.07Z"/>
</svg>
