<?xml version="1.0" encoding="utf-8"?>
<!-- Generator: Adobe Illustrator 22.0.1, SVG Export Plug-In . SVG Version: 6.00 Build 0)  -->
<svg version="1.1" id="GeoCookieIcon" xmlns="http://www.w3.org/2000/svg" xmlns:xlink="http://www.w3.org/1999/xlink" x="0px" y="0px"
	 viewBox="0 0 480 480" style="enable-background:new 0 0 480 480;" xml:space="preserve">
<style type="text/css">
	.geo-cookie-st0{fill:url(#GeoCookieGrad);}
	.geo-cookie-st1{fill:#FFFFFF;}
</style>
<title>geocookie</title>
<linearGradient id="GeoCookieGrad" gradientUnits="userSpaceOnUse" x1="70.2944" y1="411.7056" x2="409.7056" y2="72.2944" gradientTransform="matrix(1 0 0 -1 0 482)">
	<stop  offset="0" style="stop-color:#2AFADF"/>
	<stop  offset="1" style="stop-color:#4C83FF"/>
</linearGradient>
<circle class="geo-cookie-st0" cx="240" cy="240" r="240"/>
<path class="geo-cookie-st1" d="M340,240c0-55.2-44.8-100-100-100s-100,44.8-100,100s44.8,100,100,100S340,295.2,340,240z M323.2,265.8h-40.1
	c2.7-17.1,2.7-34.5,0-51.6h40.1C328.4,231,328.4,249,323.2,265.8z M240,326.5c-12.4-11.2-21.8-28-27.2-47.7h54.4
	C261.8,298.4,252.4,315.3,240,326.5z M209.9,265.8c-2.9-17.1-2.9-34.5,0-51.6H270c2.9,17.1,2.9,34.5,0,51.6H209.9z M240,153.6
	c13.5,12.2,22.4,30.2,27.2,47.7h-54.4C217.6,183.7,226.5,165.7,240,153.6z M318,201.3h-37.5c-4.4-17.8-11.8-33.8-21.7-46.3
	C284.5,160.7,306.3,177.7,318,201.3L318,201.3z M221.1,155c-9.9,12.6-17.3,28.6-21.7,46.4H162C173.7,177.7,195.5,160.7,221.1,155
	L221.1,155z M156.7,214.2h40.1c-2.7,17.1-2.7,34.5,0,51.6h-40C151.6,249,151.6,231,156.7,214.2L156.7,214.2z M162,278.7h37.6
	c4.4,17.8,11.9,33.8,21.7,46.4C195.5,319.4,173.7,302.3,162,278.7z M258.8,325.1c9.8-12.6,17.3-28.5,21.7-46.4H318
	C306.3,302.3,284.5,319.4,258.8,325.1L258.8,325.1z"/>
</svg>
